<?xml version="1.0" encoding="UTF-8"?>
<svg width="1141px" height="390px" viewBox="0 0 1141 390" version="1.1" xmlns="http://www.w3.org/2000/svg" xmlns:xlink="http://www.w3.org/1999/xlink">
    <title>矩形</title>
    <defs>
        <linearGradient x1="1.88047328%" y1="50.1005373%" x2="102.885979%" y2="49.9163964%" id="linearGradient-1">
            <stop stop-color="#11B392" offset="0%"></stop>
            <stop stop-color="#0DFF61" offset="100%"></stop>
        </linearGradient>
        <linearGradient x1="0%" y1="50.1039655%" x2="102.885979%" y2="49.9163964%" id="linearGradient-2">
            <stop stop-color="#FFB317" offset="0%"></stop>
            <stop stop-color="#FFE40D" offset="100%"></stop>
        </linearGradient>
        <linearGradient x1="0%" y1="50.1039655%" x2="102.885979%" y2="49.9163964%" id="linearGradient-3">
            <stop stop-color="#EE5333" offset="0%"></stop>
            <stop stop-color="#FFB576" offset="100%"></stop>
        </linearGradient>
        <linearGradient x1="0%" y1="50.1855376%" x2="102.885979%" y2="49.8508004%" id="linearGradient-4">
            <stop stop-color="#3378EE" offset="0%"></stop>
            <stop stop-color="#0DE5FF" offset="100%"></stop>
        </linearGradient>
        <linearGradient x1="13.8787342%" y1="81.9549758%" x2="89.6992375%" y2="23.4272575%" id="linearGradient-5">
            <stop stop-color="#11B392" offset="0%"></stop>
            <stop stop-color="#0DFF61" offset="100%"></stop>
        </linearGradient>
        <linearGradient x1="12.4671435%" y1="83.0446175%" x2="89.6992375%" y2="23.4272575%" id="linearGradient-6">
            <stop stop-color="#FFB317" offset="0%"></stop>
            <stop stop-color="#FFE40D" offset="100%"></stop>
        </linearGradient>
        <linearGradient x1="12.4671435%" y1="83.0446175%" x2="89.6992375%" y2="23.4272575%" id="linearGradient-7">
            <stop stop-color="#EE5333" offset="0%"></stop>
            <stop stop-color="#FFB576" offset="100%"></stop>
        </linearGradient>
        <linearGradient x1="12.4671435%" y1="83.0446175%" x2="89.6992375%" y2="23.4272575%" id="linearGradient-8">
            <stop stop-color="#3378EE" offset="0%"></stop>
            <stop stop-color="#0DE5FF" offset="100%"></stop>
        </linearGradient>
    </defs>
    <g id="页面-1" stroke="none" stroke-width="1" fill="none" fill-rule="evenodd">
        <g id="邀请1" transform="translate(-506.000000, -1805.000000)">
            <g id="编组" transform="translate(377.000000, 1690.000000)">
                <g id="编组-18" transform="translate(129.000000, 115.000000)">
                    <rect id="矩形" fill="url(#linearGradient-1)" fill-rule="nonzero" opacity="0.151152838" x="0" y="107" width="1141" height="64" rx="10"></rect>
                    <rect id="矩形备份-2" fill="url(#linearGradient-2)" fill-rule="nonzero" opacity="0.149649484" x="0" y="213" width="1141" height="64" rx="10"></rect>
                    <rect id="矩形备份-3" fill="url(#linearGradient-3)" fill-rule="nonzero" opacity="0.149298532" x="0" y="326" width="1141" height="64" rx="10"></rect>
                    <g id="箭头_向右备份-7" transform="translate(377.413376, 72.105325) rotate(-200.000000) translate(-377.413376, -72.105325) translate(310.685944, 67.105325)" fill="url(#linearGradient-4)" fill-rule="nonzero">
                        <polygon id="路径" points="130.079211 4.090912 3.72448922e-12 2.37112119 0 4.1892972 130.079211 5.909088 127.325376 8.72727893 128.569054 10 133.454864 5.00001065 128.657873 0 127.414216 1.27272107"></polygon>
                    </g>
                    <g id="箭头_向右备份-8" transform="translate(761.240129, 72.105325) scale(-1, 1) rotate(-200.000000) translate(-761.240129, -72.105325) translate(694.512697, 67.105325)" fill="url(#linearGradient-4)" fill-rule="nonzero">
                        <polygon id="路径" points="130.079211 4.090912 3.72448922e-12 2.37112119 0 4.1892972 130.079211 5.909088 127.325376 8.72727893 128.569054 10 133.454864 5.00001065 128.657873 1.70530257e-13 127.414216 1.27272107"></polygon>
                    </g>
                    <g id="编组-15" transform="translate(38.000000, 112.000000)" fill-rule="nonzero">
                        <g id="箭头_向右备份" transform="translate(113.759051, 84.096552) rotate(-225.000000) translate(-113.759051, -84.096552) translate(96.971591, 80.832184)" fill="#FFFFFF">
                            <polygon id="路径" points="31.3526206 2.67084829 9.54256633e-13 2.94069023 0 4.12772928 31.3526206 3.85788734 29.5396834 5.69780969 30.3584363 6.52873563 33.5749205 3.26437477 30.4169089 0 29.5981697 0.830925943"></polygon>
                        </g>
                        <g id="箭头_向右备份-6" transform="translate(226.145415, 84.096552) scale(-1, 1) rotate(-225.000000) translate(-226.145415, -84.096552) translate(209.357955, 80.832184)" fill="#FFFFFF">
                            <polygon id="路径" points="31.3526206 2.67084829 9.54256633e-13 2.94069023 0 4.12772928 31.3526206 3.85788734 29.5396834 5.69780969 30.3584363 6.52873563 33.5749205 3.26437477 30.4169089 0 29.5981697 0.830925943"></polygon>
                        </g>
                        <g id="箭头_向右备份-2" transform="translate(48.597032, 187.800642) rotate(-225.000000) translate(-48.597032, -187.800642) translate(31.809572, 184.536275)" fill="#FFFFFF">
                            <polygon id="路径" points="31.3526206 2.67084829 9.54256633e-13 2.94069023 0 4.12772928 31.3526206 3.85788734 29.5396834 5.69780969 30.3584363 6.52873563 33.5749205 3.26437477 30.4169089 9.09494702e-13 29.5981697 0.830925943"></polygon>
                        </g>
                        <g id="箭头_向右备份-3" transform="translate(242.006123, 187.800642) rotate(-225.000000) translate(-242.006123, -187.800642) translate(225.218663, 184.536275)" fill="#FFFFFF">
                            <polygon id="路径" points="31.3526206 2.67084829 9.54256633e-13 2.94069023 0 4.12772928 31.3526206 3.85788734 29.5396834 5.69780969 30.3584363 6.52873563 33.5749205 3.26437477 30.4169089 0 29.5981697 0.830925943"></polygon>
                        </g>
                        <g id="箭头_向右备份-4" transform="translate(97.602714, 187.800642) scale(-1, 1) rotate(-225.000000) translate(-97.602714, -187.800642) translate(80.815254, 184.536275)" fill="#FFFFFF">
                            <polygon id="路径" points="31.3526206 2.67084829 9.54256633e-13 2.94069023 0 4.12772928 31.3526206 3.85788734 29.5396834 5.69780969 30.3584363 6.52873563 33.5749205 3.26437477 30.4169089 0 29.5981697 0.830925943"></polygon>
                        </g>
                        <g id="箭头_向右备份-5" transform="translate(291.011805, 187.800642) scale(-1, 1) rotate(-225.000000) translate(-291.011805, -187.800642) translate(274.224345, 184.536275)" fill="#FFFFFF">
                            <polygon id="路径" points="31.3526206 2.67084829 9.54256633e-13 2.94069023 0 4.12772928 31.3526206 3.85788734 29.5396834 5.69780969 30.3584363 6.52873563 33.5749205 3.26437477 30.4169089 0 29.5981697 0.830925943"></polygon>
                        </g>
                        <path d="M156.995,13.37 C156.995,20.7540471 163.074973,26.74 170.575,26.74 C178.075027,26.74 184.155,20.7540471 184.155,13.37 C184.155,5.98595289 178.075027,0 170.575,0 C163.074973,0 156.995,5.98595289 156.995,13.37 Z M176.805,31.185 L165.5,31.185 C155.929892,31.1840621 148.133981,38.8708304 148,48.44 L148,49.56 C148,53.445 155.84,53.445 165.5,53.445 L176.805,53.445 C186.5,53.445 194.305,53.445 194.305,49.56 L194.305,48.44 C194.171019,38.8708304 186.375108,31.1840621 176.805,31.185 Z" id="形状" fill="url(#linearGradient-5)"></path>
                        <path d="M253.995,119.37 C253.995,126.754047 260.074973,132.74 267.575,132.74 C275.075027,132.74 281.155,126.754047 281.155,119.37 C281.155,111.985953 275.075027,106 267.575,106 C260.074973,106 253.995,111.985953 253.995,119.37 Z M273.805,137.185 L262.5,137.185 C252.929892,137.184062 245.133981,144.87083 245,154.44 L245,155.56 C245,159.445 252.84,159.445 262.5,159.445 L273.805,159.445 C283.5,159.445 291.305,159.445 291.305,155.56 L291.305,154.44 C291.171019,144.87083 283.375108,137.184062 273.805,137.185 Z" id="形状" fill="url(#linearGradient-6)"></path>
                        <path d="M60.995,119.37 C60.995,126.754047 67.0749731,132.74 74.575,132.74 C82.0750269,132.74 88.155,126.754047 88.155,119.37 C88.155,111.985953 82.0750269,106 74.575,106 C67.0749731,106 60.995,111.985953 60.995,119.37 Z M80.805,137.185 L69.5,137.185 C59.9298925,137.184062 52.1339815,144.87083 52,154.44 L52,155.56 C52,159.445 59.84,159.445 69.5,159.445 L80.805,159.445 C90.5,159.445 98.305,159.445 98.305,155.56 L98.305,154.44 C98.1710185,144.87083 90.3751075,137.184062 80.805,137.185 Z" id="形状" fill="url(#linearGradient-6)"></path>
                        <path d="M8.995,231.37 C8.995,238.754047 15.0749731,244.74 22.575,244.74 C30.0750269,244.74 36.155,238.754047 36.155,231.37 C36.155,223.985953 30.0750269,218 22.575,218 C15.0749731,218 8.995,223.985953 8.995,231.37 Z M28.805,249.185 L17.5,249.185 C7.92989248,249.184062 0.13398146,256.87083 0,266.44 L0,267.56 C0,271.445 7.84,271.445 17.5,271.445 L28.805,271.445 C38.5,271.445 46.305,271.445 46.305,267.56 L46.305,266.44 C46.1710185,256.87083 38.3751075,249.184062 28.805,249.185 Z" id="形状" fill="url(#linearGradient-7)"></path>
                        <path d="M110.995,231.37 C110.995,238.754047 117.074973,244.74 124.575,244.74 C132.075027,244.74 138.155,238.754047 138.155,231.37 C138.155,223.985953 132.075027,218 124.575,218 C117.074973,218 110.995,223.985953 110.995,231.37 Z M130.805,249.185 L119.5,249.185 C109.929892,249.184062 102.133981,256.87083 102,266.44 L102,267.56 C102,271.445 109.84,271.445 119.5,271.445 L130.805,271.445 C140.5,271.445 148.305,271.445 148.305,267.56 L148.305,266.44 C148.171019,256.87083 140.375108,249.184062 130.805,249.185 Z" id="形状" fill="url(#linearGradient-7)"></path>
                        <path d="M201.995,231.37 C201.995,238.754047 208.074973,244.74 215.575,244.74 C223.075027,244.74 229.155,238.754047 229.155,231.37 C229.155,223.985953 223.075027,218 215.575,218 C208.074973,218 201.995,223.985953 201.995,231.37 Z M221.805,249.185 L210.5,249.185 C200.929892,249.184062 193.133981,256.87083 193,266.44 L193,267.56 C193,271.445 200.84,271.445 210.5,271.445 L221.805,271.445 C231.5,271.445 239.305,271.445 239.305,267.56 L239.305,266.44 C239.171019,256.87083 231.375108,249.184062 221.805,249.185 Z" id="形状" fill="url(#linearGradient-7)"></path>
                        <path d="M303.995,231.37 C303.995,238.754047 310.074973,244.74 317.575,244.74 C325.075027,244.74 331.155,238.754047 331.155,231.37 C331.155,223.985953 325.075027,218 317.575,218 C310.074973,218 303.995,223.985953 303.995,231.37 Z M323.805,249.185 L312.5,249.185 C302.929892,249.184062 295.133981,256.87083 295,266.44 L295,267.56 C295,271.445 302.84,271.445 312.5,271.445 L323.805,271.445 C333.5,271.445 341.305,271.445 341.305,267.56 L341.305,266.44 C341.171019,256.87083 333.375108,249.184062 323.805,249.185 Z" id="形状" fill="url(#linearGradient-7)"></path>
                    </g>
                    <g id="编组-16" transform="translate(760.000000, 112.000000)" fill-rule="nonzero">
                        <g id="箭头_向右备份" transform="translate(114.064051, 84.096552) rotate(-225.000000) translate(-114.064051, -84.096552) translate(97.276591, 80.832184)" fill="#FFFFFF">
                            <polygon id="路径" points="31.3526206 2.67084829 9.54256633e-13 2.94069023 0 4.12772928 31.3526206 3.85788734 29.5396834 5.69780969 30.3584363 6.52873563 33.5749205 3.26437477 30.4169089 0 29.5981697 0.830925943"></polygon>
                        </g>
                        <g id="箭头_向右备份-6" transform="translate(226.450415, 84.096552) scale(-1, 1) rotate(-225.000000) translate(-226.450415, -84.096552) translate(209.662955, 80.832184)" fill="#FFFFFF">
                            <polygon id="路径" points="31.3526206 2.67084829 9.54256633e-13 2.94069023 0 4.12772928 31.3526206 3.85788734 29.5396834 5.69780969 30.3584363 6.52873563 33.5749205 3.26437477 30.4169089 0 29.5981697 0.830925943"></polygon>
                        </g>
                        <g id="箭头_向右备份-2" transform="translate(48.902032, 187.800642) rotate(-225.000000) translate(-48.902032, -187.800642) translate(32.114572, 184.536275)" fill="#FFFFFF">
                            <polygon id="路径" points="31.3526206 2.67084829 4.99509283e-13 2.94069023 -4.54747351e-13 4.12772928 31.3526206 3.85788734 29.5396834 5.69780969 30.3584363 6.52873563 33.5749205 3.26437477 30.4169089 -9.09494702e-13 29.5981697 0.830925943"></polygon>
                        </g>
                        <g id="箭头_向右备份-3" transform="translate(242.311123, 187.800642) rotate(-225.000000) translate(-242.311123, -187.800642) translate(225.523663, 184.536275)" fill="#FFFFFF">
                            <polygon id="路径" points="31.3526206 2.67084829 9.54256633e-13 2.94069023 0 4.12772928 31.3526206 3.85788734 29.5396834 5.69780969 30.3584363 6.52873563 33.5749205 3.26437477 30.4169089 0 29.5981697 0.830925943"></polygon>
                        </g>
                        <g id="箭头_向右备份-4" transform="translate(97.907714, 187.800642) scale(-1, 1) rotate(-225.000000) translate(-97.907714, -187.800642) translate(81.120254, 184.536275)" fill="#FFFFFF">
                            <polygon id="路径" points="31.3526206 2.67084829 9.54256633e-13 2.94069023 0 4.12772928 31.3526206 3.85788734 29.5396834 5.69780969 30.3584363 6.52873563 33.5749205 3.26437477 30.4169089 0 29.5981697 0.830925943"></polygon>
                        </g>
                        <g id="箭头_向右备份-5" transform="translate(291.316805, 187.800642) scale(-1, 1) rotate(-225.000000) translate(-291.316805, -187.800642) translate(274.529345, 184.536275)" fill="#FFFFFF">
                            <polygon id="路径" points="31.3526206 2.67084829 9.54256633e-13 2.94069023 0 4.12772928 31.3526206 3.85788734 29.5396834 5.69780969 30.3584363 6.52873563 33.5749205 3.26437477 30.4169089 0 29.5981697 0.830925943"></polygon>
                        </g>
                        <path d="M156.995,13.37 C156.995,20.7540471 163.074973,26.74 170.575,26.74 C178.075027,26.74 184.155,20.7540471 184.155,13.37 C184.155,5.98595289 178.075027,0 170.575,0 C163.074973,0 156.995,5.98595289 156.995,13.37 Z M176.805,31.185 L165.5,31.185 C155.929892,31.1840621 148.133981,38.8708304 148,48.44 L148,49.56 C148,53.445 155.84,53.445 165.5,53.445 L176.805,53.445 C186.5,53.445 194.305,53.445 194.305,49.56 L194.305,48.44 C194.171019,38.8708304 186.375108,31.1840621 176.805,31.185 Z" id="形状" fill="url(#linearGradient-5)"></path>
                        <path d="M253.995,119.37 C253.995,126.754047 260.074973,132.74 267.575,132.74 C275.075027,132.74 281.155,126.754047 281.155,119.37 C281.155,111.985953 275.075027,106 267.575,106 C260.074973,106 253.995,111.985953 253.995,119.37 Z M273.805,137.185 L262.5,137.185 C252.929892,137.184062 245.133981,144.87083 245,154.44 L245,155.56 C245,159.445 252.84,159.445 262.5,159.445 L273.805,159.445 C283.5,159.445 291.305,159.445 291.305,155.56 L291.305,154.44 C291.171019,144.87083 283.375108,137.184062 273.805,137.185 Z" id="形状" fill="url(#linearGradient-6)"></path>
                        <path d="M60.995,119.37 C60.995,126.754047 67.0749731,132.74 74.575,132.74 C82.0750269,132.74 88.155,126.754047 88.155,119.37 C88.155,111.985953 82.0750269,106 74.575,106 C67.0749731,106 60.995,111.985953 60.995,119.37 Z M80.805,137.185 L69.5,137.185 C59.9298925,137.184062 52.1339815,144.87083 52,154.44 L52,155.56 C52,159.445 59.84,159.445 69.5,159.445 L80.805,159.445 C90.5,159.445 98.305,159.445 98.305,155.56 L98.305,154.44 C98.1710185,144.87083 90.3751075,137.184062 80.805,137.185 Z" id="形状" fill="url(#linearGradient-6)"></path>
                        <path d="M8.995,231.37 C8.995,238.754047 15.0749731,244.74 22.575,244.74 C30.0750269,244.74 36.155,238.754047 36.155,231.37 C36.155,223.985953 30.0750269,218 22.575,218 C15.0749731,218 8.995,223.985953 8.995,231.37 Z M28.805,249.185 L17.5,249.185 C7.92989248,249.184062 0.13398146,256.87083 0,266.44 L0,267.56 C0,271.445 7.84,271.445 17.5,271.445 L28.805,271.445 C38.5,271.445 46.305,271.445 46.305,267.56 L46.305,266.44 C46.1710185,256.87083 38.3751075,249.184062 28.805,249.185 Z" id="形状" fill="url(#linearGradient-7)"></path>
                        <path d="M110.995,231.37 C110.995,238.754047 117.074973,244.74 124.575,244.74 C132.075027,244.74 138.155,238.754047 138.155,231.37 C138.155,223.985953 132.075027,218 124.575,218 C117.074973,218 110.995,223.985953 110.995,231.37 Z M130.805,249.185 L119.5,249.185 C109.929892,249.184062 102.133981,256.87083 102,266.44 L102,267.56 C102,271.445 109.84,271.445 119.5,271.445 L130.805,271.445 C140.5,271.445 148.305,271.445 148.305,267.56 L148.305,266.44 C148.171019,256.87083 140.375108,249.184062 130.805,249.185 Z" id="形状" fill="url(#linearGradient-7)"></path>
                        <path d="M201.995,231.37 C201.995,238.754047 208.074973,244.74 215.575,244.74 C223.075027,244.74 229.155,238.754047 229.155,231.37 C229.155,223.985953 223.075027,218 215.575,218 C208.074973,218 201.995,223.985953 201.995,231.37 Z M221.805,249.185 L210.5,249.185 C200.929892,249.184062 193.133981,256.87083 193,266.44 L193,267.56 C193,271.445 200.84,271.445 210.5,271.445 L221.805,271.445 C231.5,271.445 239.305,271.445 239.305,267.56 L239.305,266.44 C239.171019,256.87083 231.375108,249.184062 221.805,249.185 Z" id="形状" fill="url(#linearGradient-7)"></path>
                        <path d="M303.995,231.37 C303.995,238.754047 310.074973,244.74 317.575,244.74 C325.075027,244.74 331.155,238.754047 331.155,231.37 C331.155,223.985953 325.075027,218 317.575,218 C310.074973,218 303.995,223.985953 303.995,231.37 Z M323.805,249.185 L312.5,249.185 C302.929892,249.184062 295.133981,256.87083 295,266.44 L295,267.56 C295,271.445 302.84,271.445 312.5,271.445 L323.805,271.445 C333.5,271.445 341.305,271.445 341.305,267.56 L341.305,266.44 C341.171019,256.87083 333.375108,249.184062 323.805,249.185 Z" id="形状" fill="url(#linearGradient-7)"></path>
                    </g>
                    <text id="Nível-1" font-family="HelveticaNeue-Bold, Helvetica Neue" font-size="30" font-weight="bold" fill="#FFFFFF">
                        <tspan x="521.45" y="150">Nível 1</tspan>
                    </text>
                    <text id="Nível-2" font-family="HelveticaNeue-Bold, Helvetica Neue" font-size="30" font-weight="bold" fill="#FFFFFF">
                        <tspan x="521.45" y="256">Nível 2</tspan>
                    </text>
                    <text id="Nível-3" font-family="HelveticaNeue-Bold, Helvetica Neue" font-size="30" font-weight="bold" fill="#FFFFFF">
                        <tspan x="521.45" y="368">Nível 3</tspan>
                    </text>
                    <g id="用户" transform="translate(533.000000, 0.000000)" fill-rule="nonzero">
                        <rect id="矩形" fill="#000000" opacity="0" x="0" y="0" width="72" height="72"></rect>
                        <path d="M18.72,18.81 C18.72,28.3037748 26.5371083,36 36.18,36 C45.8228917,36 53.64,28.3037748 53.64,18.81 C53.64,9.31622515 45.8228917,1.62 36.18,1.62 C26.5371083,1.62 18.72,9.31622515 18.72,18.81 Z M44.19,41.715 L29.655,41.715 C17.350576,41.7137941 7.32726188,51.5967819 7.155,63.9 L7.155,65.34 C7.155,70.335 17.235,70.335 29.655,70.335 L44.19,70.335 C56.655,70.335 66.69,70.335 66.69,65.34 L66.69,63.9 C66.5177381,51.5967819 56.494424,41.7137941 44.19,41.715 Z" id="形状" fill="url(#linearGradient-8)"></path>
                    </g>
                </g>
            </g>
        </g>
    </g>
</svg>