<svg id="bitcoin-cash-bch-logo" xmlns="http://www.w3.org/2000/svg" width="26.149" height="32.898" viewBox="0 0 26.149 32.898">
  <path id="symbol_1_" d="M214.333,154.813c-1.333-3.022-4.395-3.668-8.144-3.042l-1.2-4.671-2.84.734,1.185,4.657c-.747.188-1.514.35-2.275.565l-1.185-4.63-2.84.734,1.2,4.671c-.612.175-5.734,1.487-5.734,1.487l.781,3.042s2.086-.586,2.066-.538a1.511,1.511,0,0,1,1.959.821l3.311,12.8a1.05,1.05,0,0,1-.821,1.218c.047.027-2.066.532-2.066.532l.31,3.547s5.075-1.3,5.741-1.467L205,180l2.84-.734-1.218-4.758q1.171-.273,2.282-.565l1.211,4.731,2.84-.734-1.218-4.718c4.375-1.063,7.464-3.823,6.831-8.043-.4-2.544-3.183-4.63-5.492-4.866a4.691,4.691,0,0,0,1.259-5.5Zm-1.366,11.139c.565,4.18-5.243,4.691-7.161,5.2l-1.669-6.253C206.062,164.39,212.011,162.27,212.967,165.952Zm-3.5-8.514c.6,3.715-4.368,4.146-5.97,4.556l-1.521-5.674C203.585,155.924,208.249,154,209.467,157.438Z" transform="translate(-192.5 -147.1)" fill="#0ac18e"/>
</svg>
