<svg id="tether-usdt-logo" xmlns="http://www.w3.org/2000/svg" width="31.288" height="28.819" viewBox="0 0 31.288 28.819">
  <path id="Path_4103" data-name="Path 4103" d="M82.937,55.722h0c-.178.013-1.1.068-3.145.068-1.63,0-2.787-.049-3.193-.068h0c-6.3-.277-11-1.373-11-2.686s4.7-2.407,11-2.689V54.63c.412.03,1.591.1,3.221.1,1.956,0,2.935-.081,3.111-.1V50.35c6.284.28,10.975,1.376,10.975,2.686s-4.689,2.406-10.975,2.684h0Zm0-5.815V46.074h8.77V40.23H67.829v5.844H76.6v3.831c-7.127.327-12.487,1.739-12.487,3.431s5.36,3.1,12.487,3.431V69.049h6.338V56.763c7.111-.327,12.462-1.738,12.462-3.428s-5.347-3.1-12.462-3.43h0Zm0,0Z" transform="translate(-64.11 -40.23)" fill="#50af95" fill-rule="evenodd"/>
</svg>
