<svg id="Group_1083" data-name="Group 1083" xmlns="http://www.w3.org/2000/svg" width="26.173" height="32.607" viewBox="0 0 26.173 32.607">
  <path id="Path_83" data-name="Path 83" d="M374.274-2846.754s4.881.316,6.023-4.264c1.392-5.586-5.346-7.2-5.346-7.2l1-4.019-4.542-1.132-1,4-1.829-.456,1-4-4.542-1.133-1,4-4.273-1.066-1.15,4.614,2.95.735-3.156,12.658-2.95-.735-1.15,4.613,4.273,1.065-1,4,4.542,1.132,1-4,1.829.456-1,4,4.542,1.132,1-4.018s7.22,1.957,8.669-3.855C379.385-2845.083,374.274-2846.754,374.274-2846.754Zm-6.839-8.458,3.77.94a1.434,1.434,0,0,1,1.045,1.739l-.456,1.83a1.434,1.434,0,0,1-1.739,1.044l-3.77-.939Zm2.549,12.6a1.435,1.435,0,0,1-1.739,1.045l-3.966-.989,1.206-4.838,3.966.989a1.434,1.434,0,0,1,1.045,1.739Z" transform="translate(-354.314 2864.958)" fill="#f7904e"/>
</svg>
