<svg id="Group_1085" data-name="Group 1085" xmlns="http://www.w3.org/2000/svg" width="32.168" height="26.705" viewBox="0 0 32.168 26.705">
  <g id="Group_54" data-name="Group 54">
    <g id="Group_53" data-name="Group 53">
      <g id="Group_52" data-name="Group 52">
        <g id="Group_51" data-name="Group 51">
          <path id="Path_92" data-name="Path 92" d="M858.7-2856.958l-7.24,7.24a6.02,6.02,0,0,1-4.286,1.775,6.019,6.019,0,0,1-4.286-1.775l-7.24-7.24h-4.558l9.519,9.519a9.224,9.224,0,0,0,6.565,2.719,9.223,9.223,0,0,0,6.565-2.719l9.519-9.519Z" transform="translate(-831.091 2856.958)" fill="#8070e5"/>
          <path id="Path_93" data-name="Path 93" d="M835.649-2818.717l7.24-7.24a6.019,6.019,0,0,1,4.286-1.775,6.021,6.021,0,0,1,4.286,1.775l7.24,7.24h4.558l-9.519-9.519a9.222,9.222,0,0,0-6.565-2.72,9.222,9.222,0,0,0-6.565,2.72l-9.519,9.519Z" transform="translate(-831.091 2845.422)" fill="#8070e5"/>
        </g>
      </g>
    </g>
  </g>
</svg>
