<svg id="Layer_2" data-name="Layer 2" xmlns="http://www.w3.org/2000/svg" width="36.451" height="29.591" viewBox="0 0 36.451 29.591">
  <g id="Layer_1" data-name="Layer 1">
    <path id="Path_4104" data-name="Path 4104" d="M94.477,0H81.208l-1.1,6.148,11.977.014c5.9,0,7.639,2.144,7.59,5.694a25.851,25.851,0,0,1-1.157,5.9c-.909,2.662-2.776,5.694-9.776,5.687L77.1,23.436,76,29.591H89.241c4.672,0,6.652-.547,8.761-1.512,4.664-2.165,7.44-6.766,8.555-12.772C108.207,6.361,106.149,0,94.477,0" transform="translate(-70.604)" fill="#008de4"/>
    <path id="Path_4105" data-name="Path 4105" d="M4.877,164.9c-3.479,0-3.976,2.265-4.3,3.635-.433,1.789-.575,2.52-.575,2.52H13.589c3.479,0,3.976-2.265,4.3-3.635.433-1.789.575-2.52.575-2.52Z" transform="translate(0 -153.193)" fill="#008de4"/>
  </g>
</svg>
